<?xml version="1.0"?>
<svg xmlns="http://www.w3.org/2000/svg" xmlns:xlink="http://www.w3.org/1999/xlink" version="1.1" id="Capa_1" x="0px" y="0px" viewBox="0 0 512 512" style="enable-background:new 0 0 512 512;" xml:space="preserve" width="512px" height="512px" class=""><g><g>
	<path style="fill:#F8BBD0" d="M256,27.929c-4.135,0-7.488-3.352-7.488-7.488V7.488C248.512,3.352,251.865,0,256,0   c4.135,0,7.488,3.352,7.488,7.488v12.953C263.488,24.577,260.135,27.929,256,27.929z" data-original="#F4E598" class="" data-old_color="#F4E598"/>
	<path style="fill:#F8BBD0" d="M256,62.13c-4.135,0-7.488-3.352-7.488-7.488v-3.376c0-4.136,3.352-7.488,7.488-7.488   c4.136,0,7.488,3.352,7.488,7.488v3.376C263.488,58.778,260.135,62.13,256,62.13z" data-original="#F4E598" class="" data-old_color="#F4E598"/>
	<path style="fill:#F8BBD0" d="M256,444.372c-4.135,0-7.488-3.352-7.488-7.488v-17.591c0-4.136,3.352-7.488,7.488-7.488   c4.136,0,7.488,3.352,7.488,7.488v17.591C263.488,441.021,260.135,444.372,256,444.372z" data-original="#F4E598" class="" data-old_color="#F4E598"/>
	<path style="fill:#F8BBD0" d="M256.005,512c-0.094,0-0.187-0.002-0.281-0.005c-4.132-0.153-7.359-3.627-7.206-7.759   c0.406-10.972,0.406-22.635,0-33.726c-0.151-4.132,3.077-7.605,7.209-7.756c4.143-0.141,7.605,3.077,7.756,7.21   c0.418,11.45,0.418,23.493,0,34.824C263.334,508.827,260.012,512,256.005,512z" data-original="#F4E598" class="" data-old_color="#F4E598"/>
	<path style="fill:#F8BBD0" d="M146.015,72.979c-2.688,0-5.285-1.451-6.627-3.992c-2.959-5.601-6.161-10.992-9.552-16.699   c-1.52-2.559-3.05-5.133-4.567-7.744c-2.077-3.576-0.862-8.159,2.714-10.236c3.575-2.076,8.159-0.863,10.236,2.713   c1.492,2.569,2.996,5.1,4.492,7.618c3.335,5.615,6.785,11.42,9.919,17.353c1.931,3.657,0.533,8.187-3.124,10.118   C148.391,72.7,147.194,72.979,146.015,72.979z" data-original="#F4E598" class="" data-old_color="#F4E598"/>
	<path style="fill:#F8BBD0" d="M174.36,122.073c-2.616,0-5.156-1.373-6.531-3.814l-1.69-3.004   c-4.275-7.605-8.696-15.468-13.609-23.5c-2.158-3.527-1.047-8.136,2.48-10.295c3.529-2.158,8.138-1.047,10.295,2.481   c5.057,8.266,9.546,16.251,13.888,23.973l1.685,2.994c2.029,3.603,0.753,8.169-2.85,10.199   C176.866,121.763,175.605,122.073,174.36,122.073z" data-original="#F4E598" class="" data-old_color="#F4E598"/>
	<path style="fill:#F8BBD0" d="M344.91,417.473c-2.588,0-5.104-1.343-6.491-3.745l-7.257-12.568   c-2.068-3.581-0.841-8.16,2.741-10.228c3.58-2.067,8.16-0.84,10.228,2.741l7.257,12.568c2.068,3.581,0.841,8.16-2.741,10.228   C347.468,417.149,346.181,417.473,344.91,417.473z" data-original="#F4E598" class="" data-old_color="#F4E598"/>
	<path style="fill:#F8BBD0" d="M380.263,478.707c-2.588,0-5.104-1.343-6.491-3.745l-15.267-26.444   c-2.068-3.582-0.84-8.16,2.741-10.228c3.581-2.067,8.16-0.84,10.228,2.741l15.267,26.444c2.068,3.582,0.84,8.16-2.741,10.228   C382.821,478.383,381.533,478.707,380.263,478.707z" data-original="#F4E598" class="" data-old_color="#F4E598"/>
	<path style="fill:#F8BBD0" d="M83.103,163.671c-1.256,0-2.528-0.316-3.697-0.981c-5.507-3.135-10.992-6.407-16.297-9.571   c-8.894-5.306-17.294-10.317-25.783-14.733c-3.669-1.908-5.096-6.429-3.188-10.098c1.909-3.669,6.43-5.094,10.098-3.187   c8.876,4.616,17.858,9.975,26.544,15.157c5.24,3.126,10.658,6.358,16.032,9.416c3.594,2.046,4.849,6.618,2.804,10.212   C88.237,162.311,85.707,163.671,83.103,163.671z" data-original="#F4E598" class="" data-old_color="#F4E598"/>
	<path style="fill:#F8BBD0" d="M114.577,181.842c-1.27,0-2.557-0.324-3.737-1.004l-10.094-5.827   c-3.581-2.069-4.808-6.648-2.739-10.229c2.068-3.581,6.647-4.806,10.229-2.74l10.092,5.827c3.581,2.067,4.809,6.646,2.741,10.228   C119.682,180.5,117.165,181.842,114.577,181.842z" data-original="#F4E598" class="" data-old_color="#F4E598"/>
	<path style="fill:#F8BBD0" d="M426.499,361.93c-1.27,0-2.558-0.324-3.737-1.004l-29.089-16.794   c-3.582-2.068-4.81-6.646-2.742-10.228c2.067-3.582,6.647-4.81,10.228-2.743l29.091,16.796c3.582,2.068,4.809,6.647,2.741,10.228   C431.603,360.588,429.086,361.93,426.499,361.93z" data-original="#F4E598" class="" data-old_color="#F4E598"/>
	<path style="fill:#F8BBD0" d="M471.211,387.745c-1.271,0-2.558-0.324-3.738-1.004l-13.516-7.805   c-3.582-2.067-4.809-6.646-2.742-10.227c2.068-3.584,6.646-4.811,10.228-2.742l13.519,7.805c3.581,2.069,4.808,6.648,2.739,10.229   C476.315,386.403,473.798,387.745,471.211,387.745z" data-original="#F4E598" class="" data-old_color="#F4E598"/>
	<path style="fill:#F8BBD0" d="M17.216,263.488H7.488C3.352,263.488,0,260.136,0,256c0-4.136,3.352-7.488,7.488-7.488h9.728   c4.135,0,7.488,3.352,7.488,7.488C24.704,260.136,21.351,263.488,17.216,263.488z" data-original="#F4E598" class="" data-old_color="#F4E598"/>
	<path style="fill:#F8BBD0" d="M40.393,263.488c-4.098,0-7.441-3.299-7.486-7.407c-0.045-4.135,3.271-7.524,7.406-7.569   c6.003-0.064,12.135-0.107,18.225-0.127c0.008,0,0.016,0,0.024,0c4.124,0,7.474,3.336,7.487,7.463   c0.013,4.136-3.328,7.498-7.464,7.512c-6.052,0.02-12.145,0.062-18.111,0.127C40.447,263.488,40.42,263.488,40.393,263.488z" data-original="#F4E598" class="" data-old_color="#F4E598"/>
	<path style="fill:#F8BBD0" d="M92.709,263.488c-0.028,0-0.056,0-0.084,0c-3.291-0.036-6.581-0.065-9.872-0.087   c-4.135-0.027-7.466-3.401-7.439-7.536c0.027-4.118,3.374-7.439,7.487-7.439c0.017,0,0.033,0,0.05,0   c3.312,0.021,6.625,0.051,9.938,0.087c4.135,0.046,7.451,3.435,7.405,7.57C100.15,260.189,96.806,263.488,92.709,263.488z" data-original="#F4E598" class="" data-old_color="#F4E598"/>
	<path style="fill:#F8BBD0" d="M419.29,263.488c-4.069,0-7.406-3.259-7.483-7.345c-0.079-4.135,3.209-7.55,7.344-7.629   c9.922-0.187,19.011-0.189,29.472,0c4.135,0.075,7.426,3.487,7.351,7.622c-0.075,4.135-3.512,7.42-7.621,7.351   c-10.27-0.185-19.188-0.185-28.918,0C419.387,263.488,419.338,263.488,419.29,263.488z" data-original="#F4E598" class="" data-old_color="#F4E598"/>
	<path style="fill:#F8BBD0" d="M471.603,263.488c-4.078,0-7.417-3.272-7.484-7.365c-0.068-4.135,3.23-7.542,7.364-7.61   c11.47-0.188,22.628-0.187,33.163,0c4.135,0.074,7.427,3.486,7.353,7.62c-0.074,4.135-3.533,7.421-7.62,7.353   c-10.364-0.185-21.349-0.185-32.651,0C471.687,263.488,471.645,263.488,471.603,263.488z" data-original="#F4E598" class="" data-old_color="#F4E598"/>
	<path style="fill:#F8BBD0" d="M40.789,387.745c-2.421,0-4.797-1.172-6.239-3.339c-2.292-3.442-1.36-8.09,2.083-10.382   c3.513-2.339,7.178-4.256,10.723-6.11c4.05-2.119,7.877-4.119,11.522-6.712c3.369-2.396,8.045-1.609,10.441,1.764   c2.396,3.369,1.607,8.044-1.763,10.441c-4.478,3.184-8.942,5.519-13.26,7.777c-3.348,1.751-6.509,3.405-9.365,5.306   C43.656,387.339,42.214,387.745,40.789,387.745z" data-original="#F4E598" class="" data-old_color="#F4E598"/>
	<path style="fill:#F8BBD0" d="M84.311,362.618c-2.787,0-5.464-1.564-6.753-4.244c-1.792-3.726-0.225-8.2,3.502-9.993   c5.779-2.78,11.058-6.075,16.163-9.261c4.486-2.8,9.125-5.695,13.981-8.153c3.687-1.868,8.194-0.391,10.062,3.299   c1.867,3.689,0.39,8.195-3.3,10.062c-4.258,2.156-8.414,4.749-12.814,7.496c-5.448,3.401-11.081,6.916-17.6,10.053   C86.505,362.379,85.399,362.618,84.311,362.618z" data-original="#F4E598" class="" data-old_color="#F4E598"/>
	<path style="fill:#F8BBD0" d="M397.421,181.843c-2.835,0-5.547-1.617-6.808-4.362c-1.727-3.758-0.081-8.203,3.676-9.931   c5.073-2.332,9.905-5.477,15.02-8.807c5.996-3.903,12.196-7.938,19.332-11.003c3.797-1.634,8.203,0.125,9.835,3.923   c1.632,3.799-0.124,8.203-3.924,9.835c-5.955,2.558-11.356,6.074-17.074,9.796c-5.342,3.477-10.866,7.071-16.935,9.862   C399.531,181.623,398.467,181.843,397.421,181.843z" data-original="#F4E598" class="" data-old_color="#F4E598"/>
	<path style="fill:#F8BBD0" d="M452.626,149.971c-2.588,0-5.104-1.343-6.491-3.745c-2.068-3.581-0.84-8.16,2.741-10.228   l18.598-10.738c3.582-2.067,8.16-0.84,10.228,2.74c2.068,3.581,0.842,8.16-2.74,10.229l-18.599,10.738   C455.184,149.647,453.897,149.971,452.626,149.971z" data-original="#F4E598" class="" data-old_color="#F4E598"/>
	<path style="fill:#F8BBD0" d="M131.737,478.707c-1.314,0-2.645-0.346-3.852-1.072c-3.544-2.131-4.689-6.732-2.557-10.276   c5.452-9.063,11.632-19.337,16.941-29.335c1.939-3.653,6.472-5.042,10.125-3.102s5.041,6.472,3.102,10.124   c-5.496,10.352-11.785,20.808-17.334,30.033C136.755,477.413,134.277,478.707,131.737,478.707z" data-original="#F4E598" class="" data-old_color="#F4E598"/>
	<path style="fill:#F8BBD0" d="M337.64,122.073c-1.27,0-2.558-0.324-3.737-1.004c-3.582-2.068-4.809-6.647-2.741-10.228   l6.855-11.873c2.067-3.582,6.646-4.809,10.228-2.741s4.809,6.647,2.741,10.228l-6.855,11.873   C342.744,120.73,340.227,122.073,337.64,122.073z" data-original="#F4E598" class="" data-old_color="#F4E598"/>
	<path style="fill:#F8BBD0" d="M359.12,84.87c-1.123,0-2.263-0.253-3.337-0.79c-3.7-1.846-5.203-6.342-3.358-10.042   c1.056-2.118,2.216-4.33,3.447-6.576c1.987-3.626,6.537-4.956,10.165-2.969c3.626,1.987,4.956,6.537,2.969,10.164   c-1.139,2.079-2.209,4.119-3.179,6.065C364.516,83.35,361.869,84.87,359.12,84.87z" data-original="#F4E598" class="" data-old_color="#F4E598"/>
	<path style="fill:#F8BBD0" d="M374.493,58.054c-1.314,0-2.645-0.346-3.853-1.072c-3.544-2.132-4.688-6.733-2.555-10.276   c1.582-2.63,3.657-6.102,5.666-9.63c2.047-3.593,6.621-4.847,10.212-2.799c3.593,2.046,4.847,6.619,2.8,10.213   c-2.087,3.664-4.221,7.235-5.846,9.936C379.511,56.761,377.033,58.054,374.493,58.054z" data-original="#F4E598" class="" data-old_color="#F4E598"/>
	<path style="fill:#F8BBD0" d="M254.304,126.926l-89.497,154.588c-2.017,3.485,0.497,7.846,4.524,7.846h77.215   c3.66,0,6.187,3.664,4.886,7.085l-31.979,84.078c-2.13,5.601,5.306,9.799,9.001,5.081l118.771-151.66   c1.996-2.549,0.18-6.279-3.058-6.279h-86.989c-3.157,0-5.594-2.777-5.183-5.907l12.016-91.533   C264.754,124.559,257.167,121.98,254.304,126.926z" data-original="#F4E598" class="" data-old_color="#F4E598"/>
</g><path style="fill:#F48FB1" d="M229.452,354.237l53.437-98.547c2.003-3.694-0.671-8.186-4.873-8.186h-64.735  c-3.997,0-6.68-4.101-5.079-7.764l49.201-112.56c1.642-3.757,7.291-2.186,6.758,1.88l-12.166,92.694  c-0.411,3.13,2.026,5.907,5.183,5.907h86.688c3.362,0,5.248,3.872,3.175,6.519L228.409,385.66  c-3.687,4.708-11.109,0.519-8.983-5.071l9.993-26.276C229.427,354.287,229.438,354.262,229.452,354.237z" data-original="#EACE88" class="active-path" data-old_color="#F06292"/></g> </svg>
